HIERARCHY
ROOT Hips
{
 OFFSET 0.000000 0.000000 0.000000
 CHANNELS 6 Xposition Yposition Zposition Yrotation Xrotation Zrotation
 JOINT Chest
 {
  OFFSET 0.000000 9.585900 0.002600
  CHANNELS 3 Yrotation Xrotation Zrotation
  JOINT Chest2
  {
   OFFSET 0.000000 9.601200 -0.005300
   CHANNELS 3 Yrotation Xrotation Zrotation
   JOINT Chest3
   {
    OFFSET 0.000000 9.561800 0.000000
    CHANNELS 3 Yrotation Xrotation Zrotation
    JOINT Chest4
    {
     OFFSET 0.000000 9.552100 0.000000
     CHANNELS 3 Yrotation Xrotation Zrotation
     JOINT Neck
     {
      OFFSET 0.000000 14.453000 0.000000
      CHANNELS 3 Yrotation Xrotation Zrotation
      JOINT Head
      {
       OFFSET 0.000000 8.936500 -0.011300
       CHANNELS 3 Yrotation Xrotation Zrotation
       End Site
       {
        OFFSET 0.000000 17.073600 -0.006000
       }
      }
     }
     JOINT RightCollar
     {
      OFFSET -2.921100 9.558500 0.000000
      CHANNELS 3 Yrotation Xrotation Zrotation
      JOINT RightShoulder
      {
       OFFSET -13.519700 0.000000 0.000000
       CHANNELS 3 Yrotation Xrotation Zrotation
       JOINT RightElbow
       {
        OFFSET 0.000000 -29.696600 0.000000
        CHANNELS 3 Yrotation Xrotation Zrotation
        JOINT RightWrist
        {
         OFFSET 0.000000 -24.004700 0.000000
         CHANNELS 3 Yrotation Xrotation Zrotation
         End Site
         {
          OFFSET 0.000000 -17.728500 0.000000
         }
        }
       }
      }
     }
     JOINT LeftCollar
     {
      OFFSET 2.921100 9.558500 0.000000
      CHANNELS 3 Yrotation Xrotation Zrotation
      JOINT LeftShoulder
      {
       OFFSET 13.519700 0.000000 0.000000
       CHANNELS 3 Yrotation Xrotation Zrotation
       JOINT LeftElbow
       {
        OFFSET 0.000000 -29.696600 0.000000
        CHANNELS 3 Yrotation Xrotation Zrotation
        JOINT LeftWrist
        {
         OFFSET 0.000000 -24.004700 0.000000
         CHANNELS 3 Yrotation Xrotation Zrotation
         End Site
         {
          OFFSET 0.000000 -17.728500 0.000000
         }
        }
       }
      }
     }
    }
   }
  }
 }
 JOINT RightHip
 {
  OFFSET -7.771700 -0.012900 -0.001300
  CHANNELS 3 Yrotation Xrotation Zrotation
  JOINT RightKnee
  {
   OFFSET 0.000000 -40.869800 0.001200
   CHANNELS 3 Yrotation Xrotation Zrotation
   JOINT RightAnkle
   {
    OFFSET 0.000000 -39.717900 0.002100
    CHANNELS 3 Yrotation Xrotation Zrotation
    JOINT RightToe
    {
     OFFSET 0.000000 -4.965400 11.033500
     CHANNELS 3 Yrotation Xrotation Zrotation
     End Site
     {
      OFFSET 0.000000 -1.423100 5.872300
     }
    }
   }
  }
 }
 JOINT LeftHip
 {
  OFFSET 7.771700 -0.012900 -0.001300
  CHANNELS 3 Yrotation Xrotation Zrotation
  JOINT LeftKnee
  {
   OFFSET 0.000000 -40.869800 0.001200
   CHANNELS 3 Yrotation Xrotation Zrotation
   JOINT LeftAnkle
   {
    OFFSET 0.000000 -39.717900 0.002100
    CHANNELS 3 Yrotation Xrotation Zrotation
    JOINT LeftToe
    {
     OFFSET 0.000000 -4.965400 11.033500
     CHANNELS 3 Yrotation Xrotation Zrotation
     End Site
     {
      OFFSET 0.000000 -1.423100 5.872300
     }
    }
   }
  }
 }
}
MOTION
Frames: 7
Frame Time: 0.008333
0.000000 85.388000 0.000000 0.000000 -5.767877 0.000000 0.000000 11.653817 0.000000 0.000000 -5.885947 0.000000 0.000000 -0.000000 0.000000 0.000000 -0.000000 0.000000 0.000000 12.528835 0.000000 0.000000 0.711642 0.000000 0.000000 -0.000000 0.000000 0.000000 0.000000 -90.000000 0.000000 -2.309062 0.000000 0.000000 2.309062 0.000000 0.000000 -0.000000 0.000000 0.000000 -0.000000 90.000000 0.000000 -2.309062 0.000000 0.000000 2.309062 0.000000 0.000000 8.520406 0.000000 0.000000 1.905762 0.000000 -0.000000 -4.658285 0.000000 0.000000 -0.000000 0.000000 0.000000 8.520406 0.000000 0.000000 1.905762 0.000000 -0.000000 -4.658285 0.000000 0.000000 -0.000000 0.000000
-128.562685 51.753314 -53.089505 175.274570 -21.206462 1.703455 -1.321388 13.441564 1.057068 -0.113898 1.087364 0.165012 -0.183811 1.864315 0.249553 -1.039443 12.089543 1.540704 -2.081777 17.400017 -1.260344 -1.871159 -7.411681 -0.907150 -0.777428 16.942824 7.123798 38.235979 2.232679 -31.115163 94.034306 -52.545189 -115.118569 5.886779 0.790420 -7.664454 2.371613 16.177637 -10.541026 -33.543440 0.827652 26.436892 160.632270 -64.671500 -132.901936 17.917685 1.942805 16.535468 -11.976078 -61.619362 5.697188 -91.245450 82.714895 -99.273851 -4.247401 -9.312087 6.027365 0.460571 -0.848123 0.238788 12.656421 -58.884988 -9.481614 32.016440 84.943938 37.632246 -2.457426 -12.753606 0.000587 0.147635 0.509216 0.064204
-128.561954 51.753953 -53.089503 175.299213 -21.214214 1.695683 -1.350357 13.440841 1.068731 -0.114063 1.084325 0.166966 -0.187574 1.864682 0.251147 -1.091652 12.079289 1.572879 -2.066758 17.425255 -1.280646 -1.885116 -7.387952 -0.878961 -0.751293 16.955660 7.077813 38.254502 2.272822 -31.140778 94.052761 -52.537966 -115.102996 5.887978 0.732747 -7.661594 2.380953 16.208188 -10.568243 -33.525017 0.855763 26.339515 161.239138 -64.860479 -133.393993 17.821652 1.747286 16.447435 -11.960610 -61.611711 5.692165 -91.306229 82.721034 -99.341694 -4.292989 -9.309165 6.046902 0.485184 -0.861112 0.233741 12.626204 -58.877253 -9.482369 32.009103 84.935347 37.632073 -2.469044 -12.744642 -0.001456 0.160639 0.506839 0.060673
-128.562657 51.754712 -53.089757 175.325008 -21.222265 1.694458 -1.377389 13.435149 1.075445 -0.118538 1.088741 0.164181 -0.195375 1.858608 0.262066 -1.098116 12.088111 1.562300 -2.078915 17.435737 -1.248128 -1.893360 -7.370705 -0.864963 -0.752810 16.951568 7.084144 38.273430 2.307394 -31.162919 94.100481 -52.537577 -115.094829 5.900730 0.704416 -7.677414 2.376246 16.216481 -10.566490 -33.507475 0.872040 26.289934 161.758805 -65.055080 -133.810048 17.716392 1.531330 16.348413 -11.950552 -61.605418 5.668942 -91.337248 82.720707 -99.374486 -4.302889 -9.308985 6.054477 0.488994 -0.868796 0.231439 12.586576 -58.864740 -9.488917 32.077599 84.918185 37.702405 -2.468298 -12.742281 -0.011616 0.158110 0.512151 0.060153
-128.562833 51.755220 -53.089566 175.332471 -21.225397 1.693298 -1.391686 13.427014 1.088148 -0.114409 1.097217 0.152480 -0.208146 1.848626 0.277100 -1.100868 12.096606 1.557432 -2.093063 17.443222 -1.213375 -1.892570 -7.358264 -0.870451 -0.754613 16.943968 7.092797 38.283331 2.337566 -31.189807 94.109844 -52.549259 -115.093080 5.904603 0.672101 -7.672372 2.371730 16.223576 -10.566071 -33.482368 0.899128 26.237402 162.308086 -65.234523 -134.257566 17.605774 1.293926 16.239465 -11.936927 -61.602171 5.659954 -91.351667 82.715274 -99.387975 -4.304222 -9.315178 6.058741 0.485943 -0.869492 0.229340 12.556218 -58.858623 -9.484418 32.160305 84.902594 37.786953 -2.467663 -12.740537 -0.024491 0.159251 0.514828 0.061056
-128.563374 51.755730 -53.089781 175.336001 -21.228107 1.691293 -1.422382 13.405230 1.112900 -0.101179 1.107692 0.139508 -0.209171 1.853146 0.273258 -1.119525 12.091154 1.576216 -2.101193 17.460310 -1.198558 -1.901075 -7.338399 -0.854168 -0.749004 16.948059 7.083679 38.290095 2.361470 -31.215847 94.118156 -52.557095 -115.084790 5.908242 0.650222 -7.689351 2.341720 16.249128 -10.522703 -33.426887 0.872315 26.145317 162.819224 -65.408745 -134.665144 17.499990 1.045432 16.121632 -11.927695 -61.597919 5.656035 -91.354100 82.708626 -99.386512 -4.307436 -9.324797 6.052351 0.484524 -0.866516 0.234158 12.523812 -58.855323 -9.471436 32.230852 84.892760 37.854223 -2.467702 -12.736800 -0.029606 0.160980 0.514510 0.059980
-128.566117 51.756261 -53.090597 175.339293 -21.230311 1.696976 -1.444687 13.398629 1.116844 -0.110038 1.100646 0.148073 -0.189136 1.865882 0.253481 -1.147771 12.077262 1.604718 -2.100998 17.478976 -1.197136 -1.926627 -7.310319 -0.798279 -0.740726 16.956467 7.077928 38.280113 2.344864 -31.243998 94.123952 -52.572080 -115.033561 5.921787 0.631363 -7.739532 2.334541 16.273404 -10.518466 -33.386759 0.878230 26.095759 163.289837 -65.570053 -135.039036 17.408931 0.801445 16.010536 -11.913123 -61.596281 5.640511 -91.366030 82.707766 -99.401589 -4.306793 -9.334193 6.057194 0.478673 -0.864403 0.230267 12.485238 -58.850229 -9.467875 32.412541 84.874059 38.025165 -2.452227 -12.734059 -0.027705 0.147609 0.514496 0.047383
